<svg xmlns="http://www.w3.org/2000/svg" width="20" height="20" viewBox="0 0 20 20">
    <g fill="none">
        <circle cx="9.929" cy="9.929" r="9.929" fill="#86DBA2"/>
        <g fill="#31383E">
            <path d="M1.334.006C.527.006 0 .536 0 1.232c0 .68.512 1.225 1.303 1.225h.015c.823 0 1.335-.545 1.335-1.225C2.637.535 2.14.006 1.334.006zM.139 3.426L2.497 3.426 2.497 10.52.139 10.52zM8.285 3.26c-1.272 0-2.125 1.195-2.125 1.195v-1.03H3.802v7.095H6.16V6.558c0-.212.015-.424.078-.575.17-.424.558-.863 1.21-.863.853 0 1.194.651 1.194 1.605v3.795H11V6.452C11 4.273 9.837 3.26 8.285 3.26z" transform="translate(4.5 4)"/>
        </g>
    </g>
</svg>
