<svg xmlns="http://www.w3.org/2000/svg" width="16" height="17" viewBox="0 0 16 17">
    <g fill="#FFF">
        <path d="M12.386 2.482L5.634 1.135 5.324 2 3.284 7.55c-.05.224-.23.395-.457.432-.193.024-.384-.06-.496-.22-.112-.159-.127-.367-.04-.54l.657-1.796L4.77.445c.033-.156.131-.29.27-.368.14-.077.305-.091.455-.038l7.59 1.502c.175.014.334.111.425.262.09.151.103.337.032.498-.863 2.789-1.822 5.578-2.901 8.298-.222.606-.512 1.185-.863 1.727-.503.759-1.344 1.226-2.254 1.252-.548.032-1.096-.078-1.589-.32-1.433-.639-2.85-1.278-4.274-1.917-.41-.16-.777-.414-1.07-.742-.437-.535-.642-1.222-.57-1.908 0-.233.06-.475.095-.734l.146.052c1.909.768 3.808 1.545 5.716 2.305.083.024.138.104.13.19-.03.46.056.92.25 1.338.247.48.772.747 1.304.665.574-.099 1.068-.464 1.33-.984.348-.628.637-1.287.863-1.969.812-2.115 1.537-4.265 2.245-6.424.078-.216.147-.432.216-.656l.07.008z" transform="translate(1 1.783)"/>
        <path d="M8.604 9.2c.002.167-.079.324-.215.42-.135.096-.31.12-.467.064l-2.21-.734c-.227-.081-.372-.304-.354-.544.026-.236.213-.423.449-.45.088-.016.179-.016.267 0l2.133.709c.237.053.403.266.397.51V9.2zm.864-2.098c.006.135-.044.266-.138.363-.096.096-.227.15-.363.146-.071.013-.145.013-.216 0l-2.15-.734c-.136-.032-.253-.118-.325-.239-.072-.12-.091-.264-.055-.4.06-.26.317-.425.579-.37.259.068.5.163.75.24l1.469.484c.237.05.407.26.406.501l.043.009zm.915-2.245c.004.143-.055.28-.162.377-.106.096-.248.141-.39.124-.32-.06-.63-.156-.942-.242l-1.381-.371c-.224-.043-.39-.23-.406-.458-.025-.2.074-.395.25-.492.151-.07.324-.07.475 0l1.563.414.604.164c.227.062.386.266.389.501v-.017zm-5.129.527c.305 0 .553.247.553.552-.01.283-.236.51-.518.518-.302.015-.56-.216-.579-.518 0-.286.232-.518.518-.518l.026-.034zm.864-1.106c-.145.005-.285-.048-.39-.147-.105-.098-.167-.235-.172-.38-.002-.137.055-.269.156-.362.096-.095.227-.148.362-.147.148-.01.293.043.401.144.108.102.17.243.17.392.002.137-.053.27-.154.363-.1.094-.236.141-.373.129v.008zm-1.693 3.1c.145-.007.287.045.392.145.106.099.167.237.17.382 0 .136-.052.266-.147.363-.097.09-.222.142-.354.146-.15.012-.298-.037-.41-.137-.112-.099-.18-.24-.186-.39.002-.138.06-.27.16-.366.101-.096.236-.147.375-.143z" transform="translate(1 1.783)"/>
    </g>
</svg>
